<svg xmlns="http://www.w3.org/2000/svg" viewBox="0 0 64 64">
  <!-- face -->
  <circle cx="32" cy="34" r="26" fill="#F0B488"/>
  <!-- hair: simple top arc with side tufts -->
  <path fill="#3B2B20" d="M32 7C19 7 8.5 16 7.5 28c-.2 2.5 0 4.5.5 6 1-6 3-9.5 5.5-11.5C17 25.5 24 27 32 27s15-1.5 18.5-4.5c2.5 2 4.5 5.5 5.5 11.5.5-1.5.7-3.5.5-6C55.5 16 45 7 32 7z"/>
  <!-- glasses -->
  <g fill="none" stroke="#26201B" stroke-width="3.4">
    <rect x="12.5" y="30" width="15.5" height="12.5" rx="5.4"/>
    <rect x="36" y="30" width="15.5" height="12.5" rx="5.4"/>
    <path d="M28 35.5q4-2.4 8 0"/>
  </g>
  <!-- smile -->
  <path d="M26 51q6 4.5 12 0" fill="none" stroke="#8C5A3C" stroke-width="2.6" stroke-linecap="round"/>
</svg>
